<svg width="44" height="49" viewBox="0 0 44 49" fill="none" xmlns="http://www.w3.org/2000/svg">
<path fill-rule="evenodd" clip-rule="evenodd" d="M24.8843 47.9094L41.4572 38.4693C43.0257 37.5758 43.9918 35.9251 43.9918 34.1384V15.2582C43.9918 13.4715 43.0257 11.8205 41.4572 10.9273L24.8843 1.4872C23.3158 0.593705 21.3835 0.593705 19.8151 1.4872L3.24184 10.9273C1.6734 11.8205 0.707275 13.4715 0.707275 15.2582V34.1384C0.707275 35.9251 1.6734 37.5758 3.24184 38.4693L19.8151 47.9094C21.3835 48.8026 23.3158 48.8026 24.8843 47.9094ZM29.4748 24.7657C30.4413 22.0851 31.4067 19.4074 32.3668 16.7349H37.0187C34.7674 23.0985 32.5633 29.3271 30.3506 35.5769H26.5061C25.8028 33.6216 25.0926 31.6406 24.3786 29.6492C23.8308 28.1212 23.2808 26.5871 22.7301 25.0538H22.3455L18.5479 35.5853H14.712L14.4667 34.8927C12.3443 28.8989 10.22 22.8995 8.04393 16.7517H12.6914C13.9176 20.1443 15.1862 23.6589 16.4548 27.1738H16.8181C18.0696 23.6927 19.3211 20.216 20.5856 16.7054H24.477C24.8658 17.7877 25.2549 18.8703 25.6443 19.9534C26.5041 22.3455 27.3647 24.7397 28.2233 27.1357H28.6205C28.9053 26.3455 29.1901 25.5555 29.4748 24.7657Z" fill="#FA5723"/>
</svg>
